<svg xmlns="http://www.w3.org/2000/svg" viewBox="0 0 200 200" role="img" aria-label="Stylized red panda">
  <rect width="200" height="200" fill="#fbe5d6" rx="24" />
  <g transform="translate(32 28)">
    <ellipse cx="68" cy="64" rx="56" ry="46" fill="#c75b12" />
    <ellipse cx="36" cy="32" rx="22" ry="26" fill="#f7f2ec" />
    <ellipse cx="100" cy="32" rx="22" ry="26" fill="#f7f2ec" />
    <ellipse cx="36" cy="32" rx="12" ry="16" fill="#1f1a17" />
    <ellipse cx="100" cy="32" rx="12" ry="16" fill="#1f1a17" />
    <ellipse cx="68" cy="74" rx="28" ry="24" fill="#f7f2ec" />
    <circle cx="58" cy="70" r="6" fill="#1f1a17" />
    <circle cx="78" cy="70" r="6" fill="#1f1a17" />
    <path d="M68 84c-8 0-16 6-16 12s8 10 16 10 16-4 16-10-8-12-16-12z" fill="#c75b12" />
    <path d="M68 100c-8 0-14 4-14 8 0 4 6 6 14 6s14-2 14-6c0-4-6-8-14-8z" fill="#1f1a17" opacity="0.4" />
  </g>
  <path d="M40 160c20 10 40 16 60 16s40-6 60-16" fill="none" stroke="#c75b12" stroke-width="12" stroke-linecap="round" />
</svg>
